<?xml version="1.0"?>
<svg width="354" height="354" xmlns="http://www.w3.org/2000/svg" xmlns:svg="http://www.w3.org/2000/svg" version="1.1" viewBox="0 0 354 354">
 <!-- Black rounded background -->
 <rect width="354" height="354" rx="70" ry="70" fill="#000000"/>

 <!-- White logo (centered with balanced padding) -->
 <g class="layer" transform="translate(27, 70) scale(0.85)">
  <title>Layer 1</title>
  <path d="m147.19,89.78a0.43,0.43 0 0 1 -0.65,0.37q-14.33,-8.4 -22.08,-13.59q-6.46,-4.32 -10.41,-5.08q-8.76,-1.68 -16.33,3.03q-20.02,12.45 -26.69,16.28q-7.52,4.32 -9.49,11.18q-0.74,2.58 -0.69,14.88q0.10,27.43 0.11,29.51q0.05,7.62 4.6,13.74q1.72,2.32 11.22,7.87q6.51,3.80 20.62,13.36q8.31,5.63 18.66,3.01q2.79,-0.71 9.20,-4.81q9.98,-6.38 17.89,-11.60c7.83,-5.17 14.43,-2.39 22.28,3.01q3.42,2.36 44.02,28.40a0.63,0.62 45.6 0 1 -0.01,1.06q-23.55,14.55 -75.18,46.15q-8.68,5.31 -14.07,6.82q-16.23,4.54 -30.73,-4.48q-64.66,-40.24 -67.20,-41.79q-8.36,-5.12 -11.28,-8.09c-6.43,-6.53 -9.97,-14.91 -10.88,-23.94q-0.10,-0.99 -0.10,-12.87q0,-71.48 0.12,-81.25q0.21,-15.83 9.92,-26.28q3.25,-3.49 16.03,-10.89q35.15,-20.32 65.60,-38.81c7.83,-4.74 18.85,-6.19 27.77,-3.91q3.67,0.94 10.20,4.79q8.94,5.27 16.58,10.78a2.35,2.34 -72.2 0 1 0.97,1.90l0,71.25z" fill="#ffffff" id="svg_6"/>
  <path d="m222.62,127.27q1.64,1.9 -0.03,0.24a0.15,0.15 0 0 1 0.18,-0.24q6.04,3.63 15.31,9.78c7.81,5.18 12.95,7.20 21.13,5.01q3.20,-0.86 8.85,-4.65q5.52,-3.70 11.51,-7.17q7.44,-4.30 9.57,-7.41q3.84,-5.59 3.86,-11.45q0.11,-40.11 0.56,-63.50q0.12,-5.92 0.45,-8.77c0.91,-8.08 5.65,-13.17 12.52,-17.06q23.02,-13.06 27.80,-15.91c5.09,-3.03 9.60,-4.45 14.55,-1.86c4.29,2.25 5.26,5.68 5.27,10.79q0.15,104.17 0.18,108.69q0.11,14.14 -0.34,17.21c-1.52,10.23 -6.18,20.67 -15.39,26.13q-30,17.78 -43.77,26.25q-19.42,11.95 -22.76,13.72c-12.98,6.89 -26.18,6 -38.05,-2.08q-1.39,-0.94 -11.46,-7.18a1.81,1.78 16.2 0 1 -0.85,-1.52l0,-68.68a0.52,0.52 0 0 1 0.91,-0.34z" fill="#ffffff" id="svg_7"/>
  <path d="m154.49,23.48a0.34,0.34 0 0 1 0.5,-0.25q8.92,4.96 19.32,11.88c11.38,7.59 15.60,9.96 27.71,17.35c6.23,3.81 11.74,8.90 12.50,16.69q0.67,6.76 0.58,15.48q-0.48,50.40 -0.23,107.33a0.34,0.34 0 0 1 -0.52,0.29q-38.91,-24.59 -43.58,-27.54c-10.24,-6.46 -16.18,-16.24 -16.27,-28.57c-0.25,-39.27 0.15,-69.33 -0.09,-110.76q-0.01,-1.14 0.08,-1.90z" fill="#ffffff" id="svg_8"/>
 </g>
</svg>
